<svg xmlns="http://www.w3.org/2000/svg" xmlns:xlink="http://www.w3.org/1999/xlink" version="1.1" x="0px" y="0px" viewBox="0 0 263 328.75" enable-background="new 0 0 263 263" xml:space="preserve"><g><path d="M20.5167,167.4836c0.802-0.3511,0.5732-1.7671-0.2769-1.8926c-11.835-1.7461-14.7239-11.1958-14.3599-21.876   c0.1292-3.793,0.0625-8.8574,2.9583-11.7705c4.166-4.1904,9.6265,0.2148,14.5791,0.3569c0.0737,0.5732,0.8376,0.9473,1.373,0.4102   c8.4-8.4292,16.063-17.6113,24.4978-26.0391c8.6616-8.6548,17.5593-17.0674,26.3611-25.5786   c16.9856-16.4248,34.8519-33.5073,47.9026-53.3726c28.0685,3.1401,56.0378,6.9336,84.0142,10.7949   c6.592,0.9097,13.1772,1.8691,19.7737,2.7451c3.302,0.439,6.6052,0.8672,9.9063,1.3125c4.1462,0.5586,10.876,0.5283,12.2068,5.5933   c1.522,5.7915-7.9941,12.6172-11.4658,16.4229c-4.5093,4.9434-8.8889,10.0122-13.2229,15.1089   c-16.574,19.4907-32.0913,39.8203-46.7723,60.7671c-3.5356,5.0449-7.0116,10.1309-10.3555,15.3052   c-2.4355,3.7686-3.6515,8.4541-9.2096,7.4521c-3.3931-0.6118-6.8379-2.2583-10.1683-3.189   c-10.9703-3.0649-22.2429-4.7954-33.5404-6.1206c-28.3546-3.3262-57.9592-3.4297-85.0554-13.3218   c-1.2764-0.4663-1.7463,1.5869-0.4885,2.0518c26.4763,9.7856,54.1775,11.3232,81.958,14.3257   c15.9705,1.7256,31.2556,4.7266,46.6857,9.2041c1.1558,0.3354,2.141,0.5098,3.0219,0.5166   c-0.4609,8.0762-0.5333,17.0977,1.2623,24.9028c-9.2067-2.4819-18.9155-3.5762-28.3051-5.2129   c-9.5942-1.6729-19.189-3.3418-28.7821-5.02c-18.8707-3.3013-37.7177-6.7578-56.7089-9.291   c0.9001-1.5273,1.8373-3.043,2.7844-4.5566c0.6252-0.9995-0.8965-2.02-1.5293-1.0166c-3.4506,5.4717-6.9495,11.0376-8.9657,17.2285   c-2.1946,6.7393-2.0319,13.7471-1.1691,20.7065c1.6459,13.2764,5.7512,35.2339-10.3585,41.2896   c2.4386-6.918,2.8129-14.0371,1.3929-21.3096c-0.1594-0.8164-1.1597-0.9253-1.7014-0.458   c-5.017,4.3237-10.5015,7.3604-16.6001,9.3589c7.6846-7.0444,13.4414-16.7817,13.8816-27.2837   c0.3301-7.877-2.731-15.2832-3.4919-23.0381c-0.777-7.9185,1.7524-17.8413,10.6433-19.9673   c0.3148-0.0752,0.2451-0.6172-0.0862-0.5742c-3.8782,0.5044-6.6914,2.1997-8.6729,4.5952   c-0.0232-0.1616-0.0922-0.3193-0.2358-0.4453c-10.2942-9.0024,0.6542-22.6885,3.3827-32.4897   c0.1525-0.5474-0.464-0.8789-0.8478-0.4683c-4.2441,4.5396-6.8621,12.8115-8.1111,18.7021   c-1.1936,5.6289-0.7987,12.4033,4.7627,15.5293c0.1248,0.0703,0.2441,0.0874,0.3588,0.084   c-3.5272,5.0767-3.879,12.687-2.7782,19.0938c1.614,9.3936,4.3303,18.0215,1.0432,27.4087   c-2.8767,8.2153-8.3136,15.2144-15.2493,20.4111c-1.0543,0.79-0.2144,2.272,0.9974,1.9888   c7.7333-1.8052,14.8253-5.3789,20.9955-10.3115c1.0465,7,0.2131,13.7788-2.2671,20.4678   c-0.2542,0.6855,0.4867,1.4287,1.1709,1.2329c12.7821-3.6567,16.3295-17.353,15.5959-29.1919   c-0.5295-8.5479-2.783-16.9902-2.4044-25.5898c0.3347-7.6016,3.2998-14.2046,6.9796-20.5679   c19.1238,3.9087,38.3691,7.1641,57.5885,10.5688c9.9044,1.7544,19.807,3.52,29.7177,5.2383   c9.0852,1.5757,18.2892,3.7446,27.4983,4.2979c0.4882,0.0293,0.7041-0.4668,0.5781-0.8438   c7.2672-9.1865,13.8325-18.8574,21.366-27.8647c7.8513-9.3867,16.0784-18.4497,24.177-27.6211   c8.0571-9.1245,16.0063-18.3628,23.3074-28.1099c3.54-4.7261,6.9185-9.5737,10.0752-14.5645   c3.0488-4.8203,7.1445-10.2192,8.6045-15.7759c0.1519-0.5786-0.6619-1.1548-1.0806-0.6226   c-0.2122,0.2695-0.4055,0.5591-0.6094,0.8379c-0.1736-3.0049-0.5969-5.9258-1.1267-8.9409   c-0.3286-1.8696-0.6633-3.7388-0.9463-5.6157c-0.137-0.9102-0.9978-3.6519-0.5552-4.3848   c0.1372-0.2275,0.0767-0.5542-0.0645-0.7612c-0.1372-0.2017-0.3408-0.3442-0.5264-0.4976c2.6255-2.6064,5.499-5.459,5.0313-9.3027   c-0.3672-3.0156-2.3843-5.0791-5.1689-6.0518c-6.2136-2.1709-13.6279-2.5474-20.1196-3.6318   c-33.5669-5.6064-67.4343-9.6382-101.231-13.5879c-0.0105-6.3843-5.3081-12.1704-12.0836-10.7168   c-4.3429,0.9312-10.8074,4.9321-8.0526,10.0732c0.3876,0.7236,1.3975,0.1035,1.0864-0.6187   c-1.5159-3.519,2.7793-5.8325,5.6292-6.7798c6.2329-2.0723,11.015,2.707,11.2383,8.9453   c-7.7151,9.896-15.3291,19.709-23.8834,28.9238c-8.1141,8.7407-16.6266,17.0986-25.2108,25.374   C64.6546,88.9729,56.17,97.0046,47.9005,105.257c-8.2587,8.2417-17.1167,16.6406-24.0325,26.0869   c-2.4626-1.6108-5.4567-3.4585-8.5408-4.2422c0.0117-0.0107,0.0244-0.0146,0.0355-0.0273   c16.1263-18.1646,31.1245-37.2974,47.4377-55.3242c16.3019-18.0147,33.1547-35.5288,50.5906-52.4487   c0.7025-0.6821-0.4697-1.6563-1.1686-0.978C94.7867,35.2434,77.9339,52.758,61.6319,70.7722   C45.4512,88.6526,28.666,106.8205,14.7662,126.57c-0.094,0.1333-0.0928,0.2725-0.0442,0.3887   c-2.0607-0.4248-4.1477-0.3394-6.1306,0.6538c-5.1337,2.5713-6.2463,8.8193-6.5413,13.959   c-0.3748,6.5332-0.2588,13.7134,3.3087,19.4424C8.5172,166.0862,14.617,170.0661,20.5167,167.4836z M248.2618,79.5315   c-2.9656,4.4165-5.1084,9.6694-7.9487,14.1357c-3.168,4.9819-6.564,9.8149-10.1123,14.5327   c-7.3186,9.7295-15.2759,18.9556-23.3284,28.0796c-7.9124,8.9653-15.939,17.8345-23.6047,27.0137   c-7.126,8.5332-14.7548,17.4902-20.0653,27.3521c0.911-7.793,0.1982-16.3418-0.9336-24.1187   c1.4789-0.3794,2.6915-1.4224,4.0421-3.2651c4.2419-5.7866,7.7137-12.2964,11.6135-18.3237   c15.6887-24.2476,33.2341-47.3018,52.1548-69.1118c4.5762-5.2749,9.2207-10.4961,13.8972-15.6821   c0.3418-0.3789,0.71-0.7598,1.0908-1.144C245.1678,65.6794,246.9769,72.7175,248.2618,79.5315z"/><path d="M259.6744,77.8376c-2.5796-2.6943-6.6863-0.7559-9.5137-2.8926c-0.8679-0.6563-1.8289,0.6533-1.0054,1.3457   c1.9487,1.6392,3.7849,1.0825,6.0327,1.8271c7.437,2.4639-0.3828,12.0713-2.5869,15.5996   c-5.2627,8.4243-10.9778,16.5752-17.0481,24.4365c-10.4172,13.4907-21.7173,26.2495-32.9397,39.0664   c-11.75,13.4189-23.4697,26.8945-34.5952,40.8398c-2.0374,2.5537-4.2859,4.8677-7.8452,4.7295   c-2.765-0.1079-5.8492-1.4238-8.5437-2.1045c-4.458-1.1255-8.9288-2.2017-13.4102-3.231   c-9.3817-2.1538-18.8132-4.0981-28.2859-5.8086c-10.725-1.937-21.5017-3.5894-32.3135-4.9609   c-11.4031-1.4468-23.1373-3.0762-34.6455-2.6118c-0.4448,0.0181-0.4679,0.6929-0.0396,0.7734   c11.3232,2.1221,22.9709,2.793,34.4004,4.2622c10.8262,1.3916,21.6162,3.0659,32.355,5.0205   c11.8865,2.1636,23.714,4.6445,35.4578,7.4834c6.6299,1.603,15.9319,6.4429,22.0002,1.2065   c3.1145-2.6875,5.5127-6.835,8.1008-10.0425c3.4431-4.2671,6.9961-8.4409,10.5781-12.5918   c6.3589-7.3682,12.8564-14.6133,19.2727-21.9312c12.9219-14.7373,25.5923-29.7178,37.1694-45.5454   c6.2871-8.5952,13.7002-17.8613,18.0098-27.6387C261.3118,82.7263,261.6148,79.864,259.6744,77.8376z"/><path d="M220.2989,40.634c-0.0215-0.0479-0.075-0.0864-0.1282-0.0879c-0.1697-0.0059-0.3391-0.0112-0.509-0.0171   c-0.502-0.0166-1.0657,0.1738-1.2544,0.6992c-3.1404,8.7485,0.22,28.8452,13.1543,26.9834   c0.7793-0.1123,1.043-1.3564,0.2056-1.6113c-7.7151-2.3452-11.0171-7.9741-11.501-15.8237   C220.0848,47.8318,221.4798,43.2556,220.2989,40.634z"/><path d="M179.1727,69.968c-3.8748-0.7026-7.7493-1.4053-11.6239-2.1079c-14.0878-2.5552-28.9674-4.0718-42.2943-9.5464   c-0.9928-0.4077-1.7827,1.2681-0.7928,1.7251c8.5818,3.96,17.8751,5.4209,27.1122,7.0894   c11.6193,2.0991,23.2371,4.2065,34.8584,6.2949c0.4468,0.0801,0.9634-0.0923,1.1733-0.5269   c3.9045-8.0889,8.2095-15.9399,12.8574-23.6255c0.376-0.6211-0.1316-1.4385-0.7778-1.5698   c-10.6069-2.1572-21.2731-3.9082-32.02-5.2026c-4.5078-0.543-9.0243-1.022-13.5459-1.4346   c-2.8502-0.2603-5.7029-0.4917-8.5579-0.6948c-2.502-0.1782-8.3809,0.3223-10.0267-1.8359c-0.4569-0.5991-1.41-0.7227-1.8085,0.04   c-4.1792,7.9966-9.6494,15.1733-13.9168,23.0659c-0.2458,0.4546,0.293,1.1357,0.7388,0.6851   c5.929-5.9995,10.3593-14.0908,14.363-21.5503c2.1438,1.6045,5.0601,1.3359,7.8503,1.5195   c6.5811,0.4331,13.1543,1.0117,19.7063,1.7666c11.818,1.3618,23.5776,3.2607,35.2561,5.5244   c-3.4783,5.8965-6.7559,11.8999-9.8438,18.0122C185.6473,72.0163,183.4649,70.7468,179.1727,69.968z"/><path d="M26.3532,158.9035c19.1971,6.2715,40.6583,7.3354,60.6144,9.7124c9.9254,1.1816,19.8655,2.2627,29.8369,2.9741   c9.6433,0.688,19.2413,0.5601,28.6813,2.8901c0.7018,0.1733,1.0513-0.8218,0.358-1.0747   c-9.1627-3.3418-19.3611-3.0146-28.9719-3.7612c-10.4872-0.8149-20.9425-1.9956-31.3787-3.3018   c-19.6853-2.4644-39.2405-6.0439-58.9126-8.46C25.9902,157.8103,25.7834,158.7175,26.3532,158.9035z"/><path d="M239.5675,77.2981c-11.3289,13.1509-23.6392,25.4844-34.4556,39.1108c-10.6177,13.376-21.9795,28.2397-28.8622,43.9722   c-0.1112,0.2544,0.2793,0.3979,0.4235,0.1919c5.1082-7.2959,9.3811-15.186,14.425-22.5449   c5.0144-7.3159,10.3401-14.4268,15.9377-21.3066c5.9651-7.3315,12.2605-14.3901,18.863-21.1533   c5.188-5.3135,11.9185-10.4854,14.8547-17.4653C241.0594,77.3762,240.1292,76.6452,239.5675,77.2981z"/><path d="M99.1292,83.5681c-3.6643,4.8369,3.4839,9.4404,7.3717,11.0483c6.8427,2.8306,14.4999,2.3745,21.7264,1.9888   c5.1372-0.2744,10.4282-0.5791,15.5051,0.4844c4.6836,0.9805,8.0088,3.4326,11.9319,5.8921   c6.8516,4.2959,14.8396,3.5708,22.1274,0.8687c0.7832-0.2905,0.5583-1.481-0.2876-1.4429   c-3.5225,0.1582-7.0729,0.6738-10.5959,0.6953c-4.7574,0.0293-8.1567-1.5654-11.9902-4.083   c-5.0511-3.3169-10.2312-4.9326-16.2827-5.1987c-6.1633-0.2715-12.2836,0.6846-18.4395,0.7217   c-6.6248,0.04-21.3726-1.3511-20.856-10.8921C99.346,83.5368,99.202,83.4719,99.1292,83.5681z"/><path d="M82.8408,112.8801c8.8981,10.8574,25.5463,11.9058,38.4141,10.3931c3.5475-0.417,7.088-1.3394,10.6549-1.5103   c5.9023-0.2827,7.8435,3.1509,12.199,5.8755c5.0486,3.1577,11.6951,2.9146,17.3972,3.6851c1.04,0.1401,1.2607-1.2949,0.3965-1.6982   c-5.6125-2.6182-12.3184-0.9272-17.5035-4.6875c-4.119-2.9868-6.4459-5.6748-11.9215-5.5313   c-7.0597,0.1851-13.9285,2.2065-21.063,2.1694c-10.6541-0.0552-19.3457-3.2715-28.2253-9.1611   C82.8892,112.216,82.6468,112.6433,82.8408,112.8801z"/></g><text x="0" y="278" fill="#000000" font-size="5px" font-weight="bold" font-family="'Helvetica Neue', Helvetica, Arial-Unicode, Arial, Sans-serif">Created by Vectors Point</text><text x="0" y="283" fill="#000000" font-size="5px" font-weight="bold" font-family="'Helvetica Neue', Helvetica, Arial-Unicode, Arial, Sans-serif">from the Noun Project</text></svg>